<svg width="264" height="183" viewBox="0 0 264 183" fill="none" xmlns="http://www.w3.org/2000/svg">
<path fill-rule="evenodd" clip-rule="evenodd" d="M122.288 91.4767C106.66 91.4767 93.992 104.145 93.992 119.772V119.845C93.992 135.472 106.66 148.14 122.288 148.14H164.015C165.574 148.14 167.103 148.014 168.594 147.772L176.678 155.58C176.898 155.793 177.191 155.911 177.497 155.911C178.148 155.911 178.676 155.384 178.676 154.732L178.677 144.05C186.85 139.089 192.311 130.105 192.311 119.845V119.772C192.311 104.145 179.643 91.4767 164.015 91.4767H122.288Z" fill="#253368"/>
<path d="M129.151 23.685H69.5701C47.2454 23.685 29.1477 41.7827 29.1477 64.1074C29.1477 86.432 47.2454 104.53 69.5701 104.53H129.151C151.476 104.53 169.573 86.432 169.573 64.1074C169.573 41.7827 151.476 23.685 129.151 23.685Z" fill="#597EF7"/>
<path fill-rule="evenodd" clip-rule="evenodd" d="M48.6221 92.7715V113.933C48.6221 114.863 49.3761 115.617 50.3063 115.617C50.7426 115.617 51.1619 115.448 51.4758 115.145L67.0263 100.141L48.6221 92.7715Z" fill="#597EF7"/>
<path d="M72.307 69.1602C75.9115 69.1602 78.8336 66.2381 78.8336 62.6336C78.8336 59.0291 75.9115 56.1071 72.307 56.1071C68.7025 56.1071 65.7805 59.0291 65.7805 62.6336C65.7805 66.2381 68.7025 69.1602 72.307 69.1602Z" fill="white"/>
<path d="M99.0448 69.1602C102.649 69.1602 105.571 66.2381 105.571 62.6336C105.571 59.0291 102.649 56.1071 99.0448 56.1071C95.4403 56.1071 92.5183 59.0291 92.5183 62.6336C92.5183 66.2381 95.4403 69.1602 99.0448 69.1602Z" fill="white"/>
<path d="M126.414 69.1602C130.018 69.1602 132.941 66.2381 132.941 62.6336C132.941 59.0291 130.018 56.1071 126.414 56.1071C122.809 56.1071 119.887 59.0291 119.887 62.6336C119.887 66.2381 122.809 69.1602 126.414 69.1602Z" fill="white"/>
<path fill-rule="evenodd" clip-rule="evenodd" d="M91.3146 125.641H30.6021V120.189C30.6021 119.007 31.5588 118.048 32.7389 118.048H89.1778C90.3579 118.048 91.3146 119.007 91.3146 120.189V125.641Z" fill="#253368"/>
<path fill-rule="evenodd" clip-rule="evenodd" d="M89.1778 178.131H32.7389C31.5588 178.131 30.6021 177.173 30.6021 175.99V125.002H91.3146V175.99C91.3146 177.173 90.3579 178.131 89.1778 178.131Z" fill="#E4EBF7"/>
<path fill-rule="evenodd" clip-rule="evenodd" d="M35.5359 121.582C35.5359 122.324 34.9354 122.926 34.1947 122.926C33.4541 122.926 32.8538 122.324 32.8538 121.582C32.8538 120.839 33.4541 120.238 34.1947 120.238C34.9354 120.238 35.5359 120.839 35.5359 121.582Z" fill="#FF7946"/>
<path fill-rule="evenodd" clip-rule="evenodd" d="M40.5441 121.582C40.5441 122.324 39.9437 122.926 39.203 122.926C38.4624 122.926 37.8621 122.324 37.8621 121.582C37.8621 120.839 38.4624 120.238 39.203 120.238C39.9437 120.238 40.5441 120.839 40.5441 121.582Z" fill="#FAAD14"/>
<path fill-rule="evenodd" clip-rule="evenodd" d="M45.5524 121.582C45.5524 122.324 44.952 122.926 44.2113 122.926C43.4707 122.926 42.8704 122.324 42.8704 121.582C42.8704 120.839 43.4707 120.238 44.2113 120.238C44.952 120.238 45.5524 120.839 45.5524 121.582Z" fill="#7CB305"/>
<path fill-rule="evenodd" clip-rule="evenodd" d="M37.1641 170.905C36.7958 170.905 36.4973 170.606 36.4973 170.237V131.531C36.4973 131.162 36.7958 130.863 37.1641 130.863H85.4162C85.7844 130.863 86.083 131.162 86.083 131.531V170.237C86.083 170.606 85.7844 170.905 85.4162 170.905H37.1641Z" fill="white"/>
<path d="M53.255 147.734C53.5325 147.497 53.9528 147.55 54.163 147.846L54.1739 147.861L63.8837 162.415L71.3944 157.138C71.4834 157.075 71.5872 157.037 71.6953 157.028L71.7185 157.026L81.6425 156.508C81.9844 156.49 82.2761 156.753 82.2939 157.095C82.3114 157.431 82.0582 157.718 81.725 157.745L81.7071 157.746L71.9613 158.255L64.077 163.795C63.7972 163.992 63.4124 163.924 63.2156 163.647L63.2049 163.632L53.5304 149.131L42.2236 158.811C41.9683 159.03 41.5866 159.005 41.362 158.758L41.3495 158.743C41.1309 158.488 41.1561 158.107 41.403 157.882L41.4172 157.869L53.255 147.734Z" fill="#FF7946"/>
<path d="M80.1729 138.951C80.3636 138.667 80.7487 138.591 81.033 138.781C81.3122 138.969 81.3905 139.343 81.2128 139.626L81.2026 139.642L72.3735 152.807C72.1521 153.137 71.6831 153.175 71.4108 152.89L71.3976 152.876L61.306 141.648L54.3107 146.368C54.212 146.434 54.0963 146.471 53.9776 146.474L53.9538 146.474L41.8103 146.275C41.468 146.27 41.195 145.987 41.2005 145.645C41.2061 145.309 41.4784 145.039 41.8126 145.035L41.8306 145.035L53.779 145.231L61.0598 140.318C61.3108 140.149 61.6465 140.186 61.8545 140.404L61.8676 140.418L71.7873 151.455L80.1729 138.951Z" fill="#FAAD14"/>
<path d="M64.8777 147.382C65.0324 147.247 65.2437 147.198 65.4417 147.249L65.4621 147.255L71.927 149.172L81.4555 147.654C81.7877 147.601 82.1003 147.823 82.1622 148.151L82.1653 148.169C82.2182 148.501 81.9968 148.813 81.6683 148.875L81.6506 148.879L71.9833 150.419C71.9002 150.432 71.8153 150.428 71.7338 150.408L71.7095 150.401L65.4369 148.54L54.5376 158.073C54.3368 158.249 54.047 158.276 53.8177 158.142L53.8006 158.132L40.7795 149.985C40.4892 149.803 40.4012 149.42 40.5828 149.13C40.7611 148.845 41.133 148.755 41.4212 148.924L41.4371 148.934L54.0679 156.837L64.8777 147.382Z" fill="#597EF7"/>
<path fill-rule="evenodd" clip-rule="evenodd" d="M53.698 135.931H41.4834C40.9832 135.931 40.5742 135.521 40.5742 135.019C40.5742 134.518 40.9832 134.108 41.4834 134.108H53.698C54.198 134.108 54.6071 134.518 54.6071 135.019C54.6071 135.521 54.198 135.931 53.698 135.931Z" fill="#CCD7EE"/>
<path fill-rule="evenodd" clip-rule="evenodd" d="M46.6358 140.227H42.0899C41.5878 140.227 41.1807 139.82 41.1807 139.316C41.1807 138.813 41.5878 138.405 42.0899 138.405H46.6358C47.1379 138.405 47.5449 138.813 47.5449 139.316C47.5449 139.82 47.1379 140.227 46.6358 140.227Z" fill="#CCD7EE"/>
<path d="M79.5717 160.053C77.4427 160.053 75.7217 161.802 75.7217 163.954C75.7217 166.106 77.4427 167.855 79.5717 167.855C81.7007 167.855 83.4217 166.106 83.4217 163.954C83.4217 161.802 81.7007 160.053 79.5717 160.053ZM79.5717 161.52C80.8848 161.52 81.9542 162.607 81.9542 163.954C81.9542 165.301 80.8848 166.387 79.5717 166.387C78.2585 166.387 77.1892 165.301 77.1892 163.954C77.1892 162.607 78.2586 161.52 79.5717 161.52Z" fill="#CCD7EE"/>
<path d="M82.1321 161.896C82.5046 161.737 82.9359 161.91 83.0953 162.282C83.3095 162.783 83.4216 163.328 83.4216 163.888C83.4216 164.346 83.3465 164.795 83.2012 165.218C83.0697 165.601 82.6524 165.805 82.2691 165.674C81.8919 165.544 81.6883 165.138 81.807 164.76L81.8132 164.742C81.9059 164.471 81.9541 164.184 81.9541 163.888C81.9541 163.541 81.8882 163.207 81.7628 162.899L81.7461 162.859C81.5867 162.487 81.7595 162.056 82.1321 161.896Z" fill="#597EF7"/>
<g clip-path="url(#clip0_30_260)">
<path d="M26.2255 98.8063L16.6934 89.2742C16.414 88.9948 15.961 88.9948 15.6816 89.2742L6.14947 98.8063C5.87009 99.0857 5.87009 99.5387 6.14947 99.8181L15.6816 109.35C15.961 109.63 16.414 109.63 16.6934 109.35L26.2255 99.8181C26.5049 99.5387 26.5049 99.0857 26.2255 98.8063Z" fill="#DEE5FD"/>
</g>
<g clip-path="url(#clip1_30_260)">
<path d="M108.44 164.98L101.175 157.716C100.962 157.503 100.617 157.503 100.404 157.716L93.1391 164.98C92.9262 165.193 92.9262 165.539 93.1391 165.752L100.404 173.016C100.617 173.229 100.962 173.229 101.175 173.016L108.44 165.752C108.653 165.539 108.653 165.193 108.44 164.98Z" fill="#DEE5FD"/>
</g>
<g clip-path="url(#clip2_30_260)">
<path fill-rule="evenodd" clip-rule="evenodd" d="M182.785 70.1906C183.722 70.6961 184.394 71.2643 184.799 71.8954C185.204 72.527 185.407 73.4362 185.407 74.623V82.5404C185.407 83.2727 185.559 83.7841 185.863 84.0747C186.167 84.3648 186.699 84.5104 187.46 84.5104H188.486C188.84 84.5104 189.132 84.6051 189.36 84.7945C189.588 84.984 189.702 85.3439 189.702 85.8742C189.702 86.2778 189.581 86.5998 189.341 86.8402C189.1 87.0798 188.815 87.2 188.486 87.2H186.205C184.964 87.2 184.045 86.9409 183.45 86.4234C182.854 85.9055 182.557 84.9898 182.557 83.6769V75.6458C182.557 73.1964 181.657 71.8705 179.859 71.6681C179.453 71.6178 179.111 71.4787 178.832 71.2515C178.553 71.0241 178.414 70.6961 178.414 70.2664C178.414 69.8373 178.566 69.5029 178.87 69.2625C179.174 69.0229 179.541 68.8778 179.973 68.8269C180.935 68.7008 181.607 68.2652 181.987 67.5199C182.367 66.7754 182.557 65.6448 182.557 64.1295V57.0454C182.557 55.8332 182.911 54.8991 183.621 54.2419C184.33 53.5857 185.217 53.2571 186.281 53.2571H188.486C188.815 53.2571 189.113 53.3517 189.379 53.5412C189.645 53.7306 189.778 54.0905 189.778 54.6209C189.828 55.1009 189.727 55.4418 189.474 55.6437C189.22 55.8462 188.891 55.9468 188.486 55.9468H187.384C186.648 55.9468 186.135 56.0982 185.844 56.4014C185.553 56.7044 185.407 57.2981 185.407 58.1819V65.8342C185.407 67.7284 184.533 69.1809 182.785 70.1906Z" fill="#D5DFFD"/>
<path fill-rule="evenodd" clip-rule="evenodd" d="M246.363 65.8342V58.1819C246.363 57.2981 246.218 56.7044 245.926 56.4014C245.635 56.0982 245.122 55.9468 244.387 55.9468H243.285C242.88 55.9468 242.55 55.8462 242.297 55.6437C242.044 55.4418 241.942 55.1009 241.993 54.6209C241.993 54.0905 242.126 53.7306 242.392 53.5412C242.658 53.3517 242.956 53.2571 243.285 53.2571H245.489C246.553 53.2571 247.44 53.5857 248.149 54.2419C248.859 54.8991 249.214 55.8332 249.214 57.0454V64.1295C249.214 65.6448 249.404 66.7754 249.784 67.5199C250.164 68.2652 250.835 68.7008 251.798 68.8269C252.229 68.8778 252.596 69.0229 252.9 69.2625C253.204 69.5029 253.356 69.8373 253.356 70.2664C253.356 70.6961 253.217 71.0241 252.938 71.2515C252.66 71.4787 252.318 71.6178 251.912 71.6681C250.113 71.8705 249.214 73.1964 249.214 75.6458V83.6769C249.214 84.9898 248.916 85.9055 248.32 86.4234C247.725 86.9409 246.807 87.2 245.565 87.2H243.285C242.956 87.2 242.671 87.0798 242.43 86.8402C242.189 86.5998 242.069 86.2778 242.069 85.8742C242.069 85.3439 242.183 84.984 242.411 84.7945C242.639 84.6051 242.93 84.5104 243.285 84.5104H244.311C245.071 84.5104 245.603 84.3648 245.907 84.0747C246.211 83.7841 246.363 83.2727 246.363 82.5404V74.623C246.363 73.4362 246.566 72.527 246.971 71.8954C247.377 71.2643 248.048 70.6961 248.986 70.1906C247.237 69.1809 246.363 67.7284 246.363 65.8342Z" fill="#D5DFFD"/>
<g clip-path="url(#clip3_30_260)">
<path d="M203.567 73.1968C203.567 75.4961 201.709 77.3543 199.409 77.3543C197.11 77.3543 195.252 75.4961 195.252 73.1968C195.252 70.8976 197.11 69.0394 199.409 69.0394H203.567V73.1968ZM205.646 73.1968C205.646 70.8976 207.504 69.0394 209.803 69.0394C212.102 69.0394 213.961 70.8976 213.961 73.1968V83.5905C213.961 85.8898 212.102 87.748 209.803 87.748C207.504 87.748 205.646 85.8898 205.646 83.5905V73.1968Z" fill="#E01E5A"/>
<path d="M209.803 56.5039C207.504 56.5039 205.646 54.6457 205.646 52.3464C205.646 50.0472 207.504 48.189 209.803 48.189C212.102 48.189 213.961 50.0472 213.961 52.3464V56.5039H209.803ZM209.803 58.6142C212.102 58.6142 213.961 60.4724 213.961 62.7716C213.961 65.0709 212.102 66.9291 209.803 66.9291H199.378C197.079 66.9291 195.22 65.0709 195.22 62.7716C195.22 60.4724 197.079 58.6142 199.378 58.6142H209.803Z" fill="#36C5F0"/>
<path d="M226.465 62.7716C226.465 60.4724 228.323 58.6142 230.622 58.6142C232.921 58.6142 234.779 60.4724 234.779 62.7716C234.779 65.0709 232.921 66.9291 230.622 66.9291H226.465V62.7716ZM224.386 62.7716C224.386 65.0709 222.527 66.9291 220.228 66.9291C217.929 66.9291 216.071 65.0709 216.071 62.7716V52.3464C216.071 50.0472 217.929 48.189 220.228 48.189C222.527 48.189 224.386 50.0472 224.386 52.3464V62.7716Z" fill="#2EB67D"/>
<path d="M220.228 79.4331C222.527 79.4331 224.386 81.2913 224.386 83.5905C224.386 85.8898 222.527 87.748 220.228 87.748C217.929 87.748 216.071 85.8898 216.071 83.5905V79.4331H220.228ZM220.228 77.3543C217.929 77.3543 216.071 75.4961 216.071 73.1968C216.071 70.8976 217.929 69.0394 220.228 69.0394H230.653C232.953 69.0394 234.811 70.8976 234.811 73.1968C234.811 75.4961 232.953 77.3543 230.653 77.3543H220.228Z" fill="#ECB22E"/>
</g>
</g>
<defs>
<clipPath id="clip0_30_260">
<rect width="22.8923" height="22.8923" fill="white" transform="translate(16.1875 83.1091) rotate(45)"/>
</clipPath>
<clipPath id="clip1_30_260">
<rect width="17.4474" height="17.4474" fill="white" transform="translate(100.79 153.017) rotate(45)"/>
</clipPath>
<clipPath id="clip2_30_260">
<rect width="92.0623" height="43.5019" fill="white" transform="translate(170.973 48.5603)"/>
</clipPath>
<clipPath id="clip3_30_260">
<rect width="40" height="40" fill="white" transform="translate(195 48)"/>
</clipPath>
</defs>
</svg>
